<svg width="20" height="20" viewBox="0 0 20 20" fill="none" xmlns="http://www.w3.org/2000/svg">
<g id="india 1">
<path id="Vector" d="M20 3.3335H0V16.6665H20V3.3335Z" fill="#F0F0F0"/>
<path id="Vector_2" d="M20 3.3335H0V7.77784H20V3.3335Z" fill="#FF9811"/>
<path id="Vector_3" d="M20 12.2222H0V16.6665H20V12.2222Z" fill="#6DA544"/>
<path id="Vector_4" d="M10.0001 11.7148C10.9471 11.7148 11.7148 10.9471 11.7148 10.0001C11.7148 9.05309 10.9471 8.2854 10.0001 8.2854C9.05309 8.2854 8.2854 9.05309 8.2854 10.0001C8.2854 10.9471 9.05309 11.7148 10.0001 11.7148Z" fill="#0052B4"/>
<path id="Vector_5" d="M10.0001 11.0718C10.592 11.0718 11.0718 10.592 11.0718 10.0001C11.0718 9.40826 10.592 8.92847 10.0001 8.92847C9.40826 8.92847 8.92847 9.40826 8.92847 10.0001C8.92847 10.592 9.40826 11.0718 10.0001 11.0718Z" fill="#F0F0F0"/>
<path id="Vector_6" d="M10 8.67749L10.3306 9.4273L11.1453 9.3387L10.6612 9.99991L11.1453 10.6611L10.3306 10.5725L10 11.3223L9.66938 10.5725L8.85474 10.6611L9.3388 9.99991L8.85474 9.3387L9.66938 9.4273L10 8.67749Z" fill="#0052B4"/>
</g>
</svg>
